<?xml version="1.0" encoding="utf-8"?>
<!-- Generator: Adobe Illustrator 25.4.1, SVG Export Plug-In . SVG Version: 6.00 Build 0)  -->
<svg version="1.1" id="Capa_1" xmlns="http://www.w3.org/2000/svg" xmlns:xlink="http://www.w3.org/1999/xlink" x="0px" y="0px"
	 viewBox="0 0 1080 1080" style="enable-background:new 0 0 1080 1080;" xml:space="preserve">
<style type="text/css">
	.st0{fill:#1A1413;}
	.st1{fill:#C3C1C0;}
	.st2{fill:#FFFFFF;}
	
		.st3{clip-path:url(#SVGID_00000005978768957480210960000006021194719614475685_);fill:url(#SVGID_00000137854632640594806370000005840343939852437428_);}
	
		.st4{clip-path:url(#SVGID_00000037684629145857395440000006529974265384750259_);fill:url(#SVGID_00000175298807785969285780000007531343102672304535_);}
	
		.st5{clip-path:url(#SVGID_00000020385116432595060940000007635372986586302604_);fill:url(#SVGID_00000065054591937804183060000011676536051851167418_);}
	
		.st6{clip-path:url(#SVGID_00000147182932644537352620000003702359560590735764_);fill:url(#SVGID_00000020384022797951181720000015517727044724564671_);}
	
		.st7{clip-path:url(#SVGID_00000036243614665236000650000013559534281822188983_);fill:url(#SVGID_00000088096777422224304560000018357366497367760296_);}
	
		.st8{clip-path:url(#SVGID_00000052094778851722189890000017297496906576195722_);fill:url(#SVGID_00000062914470530585979180000007704211175896392383_);}
</style>
<g>
	<path class="st0" d="M503.83,36.67c1.96-2.53,20.05-25.11,49.96-23.94c27.55,1.07,43.5,21.43,45.76,24.43
		c4.77,5.47,12.14,13.73,21.48,23.45c22.33,23.23,27.24,24.91,39.23,38.11c10.46,11.52,28.18,31.44,37.36,61.56
		c6.2,20.33,6.36,38.3,5.6,49.83c8.26,7.64,22.97,23.34,32.38,48.2c7.79,20.59,8.68,38.87,8.4,49.83
		c4.24-0.18,31.31-0.86,50.74,21.17c11.86,13.45,14.41,26.11,15.35,32.68c2.32-0.55,31.66-4.25,52.83,17.16
		c15.51,15.67,18.86,33.7,19.01,38.3c30.76-2.87,44.36,9.22,51.65,15.44c7.34,6.27,11.07,12.99,32.38,57.32
		c5.97,12.42,11.21,23.4,15.57,32.57c10.57,3.36,26.47,10.27,39.39,25.28c32.78,38.1,16.95,100.09-10.6,138.01
		c-22.38,30.81-55.73,35.36-71.85,43.13c1.45,4.25,26.2,25.63,25.79,33.52c-0.38,7.34-4.25,16.99-18.69,32.18
		c-19.21,20.22-40.26,28.95-51.83,32.73c6.98,0.43,16.33,0.29,27.09-1.96c10.49-2.18,19-5.68,25.21-8.79
		c-28.47,21.7-48.14,43.67-60.7,59.61c-21.97,27.84-37.56,48.15-40.16,78.17c-1.87,21.53,3.7,39.41,8.09,50.16
		c-11.25-1.01-37.17-5.06-58.53-26.05c-13.48-13.26-19.04-27.29-25.53-43.64c-6.3-15.9-17.77-45.85-13.7-85.33
		c3.25-31.41,14.89-54.93,23.04-68.4c-7.07,12.72-17.08,34.36-21.17,63.18c-3.91,27.56-0.81,50.37,2.18,64.49
		c-4.93,1.86-11.53,3.75-19.46,4.4c-12.39,1.01-22.49-1.45-28.8-3.58c-2.46,8.57-6.47,19.14-13.23,30.13
		c-15.07,24.5-35.22,37.2-46.23,42.99c1.3-31.25-3.14-41.12-8.41-42.99c-6.37-2.27-19.28,5.27-47.63,54.72
		c-14.16,24.43-28.33,48.86-42.49,73.28c-13.31-22.8-26.62-45.6-39.93-68.4c-24.02-43.57-40.6-63.76-49.73-60.58
		c-6.33,2.21-9.09,15.67-8.25,40.39c-8.83-3.29-30.79-12.91-46.39-36.97c-8.13-12.54-11.78-24.77-13.54-33.22
		c-4.79,2.26-12.34,5.11-21.95,5.86c-11.31,0.88-20.38-1.54-25.68-3.42c3.41-12.97,7.04-33.18,4.67-57.65
		c-3.43-35.36-17.56-60.8-25.68-73.28c32.8,52.85,35.25,117.79,6.07,165.62c-26.07,42.74-68.03,56.47-80.79,60.09
		c4.99-6.94,11.06-17.54,13.07-31.27c4.51-30.74-14.39-56.3-39.23-88.91c-14.62-19.2-36.72-44.72-68.18-70.35
		c6.28,3.91,15.52,8.69,27.4,11.73c10.62,2.71,19.92,3.15,26.77,2.93c-13.6-7.59-36.78-22.87-57.28-50.49
		c-20.22-27.23-21.67-48.84-25.39-64.43c-10.08-5.45-35.73-16.33-48.29-34.5C52.58,640,65.33,587.72,67.22,578.96
		c3.05-8.48,10.67-26.22,28.02-41.53c16.54-14.59,33.59-19.62,42.03-21.49c-0.08-4.05-0.25-55.53,39.23-83.05
		c22.61-15.77,39.36-18.57,48.22-17.91c-0.55-3,2.61-21.97,17.15-39.74c12.53-15.32,31.51-24.69,51.17-18.17
		c1.47-6.53,7.84-17.94,20.75-30.68c19.46-19.21,43.64-18.76,48.56-18.57c-0.22-11.35,0.79-31.79,10.28-54.72
		c9.68-23.4,23.6-38.34,31.75-45.92c0.37-41.55,12.06-67.19,21.48-82.08c4.7-7.42,9.08-12.57,41.09-47.88
		C481.85,60.77,494.47,46.93,503.83,36.67"/>
	<path class="st1" d="M941.7,526.03c6.82,5.93,16.49,16.04,23.66,31.27c8.36,17.76,8.99,33.31,9.34,44.95
		c0.44,14.81,0.76,25.22-5.6,35.83c-6.17,10.28-15.36,15.31-20.54,17.59c1.54-8.31,2.8-18.18,3.11-29.31
		c0.35-12.47-0.56-23.47-1.87-32.57c-4.15,3.47-8.3,6.95-12.45,10.42c-0.56-4.57-0.71-11.2,1.87-18.23
		c2.19-5.97,4.59-7.41,6.23-13.03c1.79-6.12,0.75-10.58-0.62-19.54C943.85,547.11,942.61,537.83,941.7,526.03"/>
	<path class="st1" d="M985.28,550.14c2.59,2.59,28.57,29.56,23.04,68.4c-4.25,29.87-25.44,54.84-54.17,63.84
		c1.99-5.87,5.53-14.67,11.83-24.1c8.4-12.56,13.57-14.08,18.68-24.75c5.98-12.49,5.76-24.77,5.6-29.97
		c-0.4-14.24-4.88-18.87-5.6-36.48C984.36,559.79,984.85,553.85,985.28,550.14"/>
	<path class="st2" d="M224.62,521.65c-1.36-4.94-4.55-6.27-7.47-10.42c-2.46-3.48-4.89-9.21-4.36-18.89
		c-5.11,2.07-13.94,6.48-21.79,15.63c-4.65,5.41-7.54,10.83-9.34,14.99c-2.75,10.57-5.38,24.79-5.6,41.69
		c-0.21,15.3,1.62,28.38,3.74,38.43c1.58,4.52,4.09,10.26,8.09,16.28c5.11,7.69,10.73,12.95,14.94,16.29
		c1.19-7.1,2.14-15.18,2.49-24.1c0.46-11.56-0.18-21.88-1.25-30.61c-1.74-0.22-6.02-1.02-9.96-4.56c-2.88-2.59-4.31-5.5-4.98-7.16
		c2.15,0.54,5.41,1.08,9.34,0.65c3.12-0.34,5.66-1.18,7.47-1.96c-1.71-5.48-3.63-14.21-2.49-24.75c0.49-4.53,1.45-8.46,2.49-11.73
		c5.97,5.23,13.31,5.48,16.81,1.96C226.65,529.45,224.7,521.96,224.62,521.65"/>
	<path class="st1" d="M165.47,527.51c-6.82,5.93-16.49,16.04-23.66,31.27c-8.36,17.76-8.99,33.31-9.34,44.95
		c-0.44,14.81-0.76,25.22,5.6,35.83c6.17,10.28,15.36,15.31,20.54,17.59c-1.54-8.31-2.8-18.18-3.11-29.31
		c-0.35-12.47,0.56-23.47,1.87-32.57c4.15,3.47,8.3,6.94,12.45,10.42c0.56-4.57,0.71-11.2-1.87-18.23
		c-2.19-5.97-4.58-7.41-6.23-13.03c-1.79-6.12-0.75-10.58,0.62-19.54C163.31,548.59,164.55,539.31,165.47,527.51"/>
	<path class="st1" d="M121.88,551.61c-2.59,2.59-28.57,29.56-23.04,68.4c4.25,29.87,25.44,54.84,54.17,63.84
		c-1.99-5.87-5.53-14.67-11.83-24.1c-8.4-12.56-13.57-14.08-18.68-24.75c-5.98-12.49-5.76-24.77-5.6-29.97
		c0.4-14.24,4.88-18.87,5.6-36.48C122.8,561.27,122.31,555.33,121.88,551.61"/>
	<path class="st1" d="M322.17,609.69c0.25,5.04,0.51,10.08,0.76,15.12c-5.9,5.76-13.7,12.32-23.58,18.3
		c-16,9.69-31.04,14.01-41.68,16.08c2.97-0.78,20.37-5.63,30.27-24.04c10.65-19.82,4.03-39.42,3.04-42.18
		c5.3,14.61,15.44,22.97,23.58,21.48C316.21,614.17,319.08,613.23,322.17,609.69"/>
</g>
<g>
	<defs>
		<path id="SVGID_1_" d="M551.93,54.42c-17.47,0.43-31.32,9.95-36.73,13.68c-10.31,7.09-16.41,14.85-20.55,20.19
			c-6.46,8.35-16.71,23.97-22.42,47.55c-0.82-2.33-2.25-7.37-1.24-13.68c0.84-5.31,3.03-9.1,4.36-11.07
			c-7.56,6.51-19.96,18.9-29.26,38.43c-10.2,21.42-11.73,40.97-11.83,51.46c2.05-2.66,4.52-5.54,7.47-8.47
			c3.49-3.47,6.9-6.26,9.96-8.47c-7.82,10.78-18.24,26.35-28.64,46.24c-6.13,11.74-22.33,42.75-24.9,61.23
			c-5.77,41.39,46.68,92.38,120.79,129.63c-4.26-7.22-11.24-18.25-21.17-30.62c-16.31-20.3-25.98-26.02-42.34-45.6
			c-14.13-16.91-22.09-26.44-26.15-37.78c-13.77-38.48,21.9-85.3,33.62-99.66c2.68-12.3,6.6-26.45,12.45-41.69
			c7-18.23,15-33.45,22.41-45.6c10.57,20.63,31.26,33.46,53.55,33.22c21.85-0.24,41.94-13,52.3-33.22
			c10.13,14.86,20.67,32.42,30.51,52.77c5.59,11.54,10.31,22.68,14.32,33.22c8.89,12.55,39.34,58.29,24.91,97.06
			c-5.01,13.46-15.66,26.67-23.04,35.82c-15.36,19.06-24.44,23.08-38.61,41.04c-6.91,8.75-15.08,20.89-22.41,37.13
			c32.38-20.68,128.83-85.65,117.68-135.49c-1.94-8.68-12.92-27.94-34.87-66.44c-9.67-16.98-17.93-30.87-23.66-40.39
			c4.22,3.53,8.96,8.04,13.7,13.68c3.63,4.32,6.61,8.53,9.03,12.38c0.43-9.64,0.11-29.9-10.28-52.12
			c-9.81-21-23.76-33.38-31.13-39.09c0.47,2.46,0.87,5.81,0.62,9.78c-0.25,4.04-1.08,7.37-1.87,9.77
			c-1.91-8.03-5.7-20.05-13.7-32.57c-4.02-6.3-27.05-42.35-61.65-42.36C552.76,54.4,552.35,54.41,551.93,54.42"/>
	</defs>
	<clipPath id="SVGID_00000175289184632056817010000007242849700426500263_">
		<use xlink:href="#SVGID_1_"  style="overflow:visible;"/>
	</clipPath>
	
		<linearGradient id="SVGID_00000097475658879899417980000013345184675995067282_" gradientUnits="userSpaceOnUse" x1="-316.8724" y1="1391.1707" x2="-312.2827" y2="1391.1707" gradientTransform="matrix(-0.0227 70.6993 70.6993 0.0227 -97806.7344 22439.0215)">
		<stop  offset="0" style="stop-color:#00AFD2"/>
		<stop  offset="0.0747" style="stop-color:#00AFD2"/>
		<stop  offset="0.4419" style="stop-color:#00AED2"/>
		<stop  offset="0.5888" style="stop-color:#00AAD0"/>
		<stop  offset="0.6963" style="stop-color:#00A4CE"/>
		<stop  offset="0.7847" style="stop-color:#009BCB"/>
		<stop  offset="0.8612" style="stop-color:#008FC5"/>
		<stop  offset="0.9295" style="stop-color:#0080BE"/>
		<stop  offset="0.9903" style="stop-color:#006EB3"/>
		<stop  offset="1" style="stop-color:#006BB1"/>
	</linearGradient>
	
		<rect x="392.32" y="54.35" style="clip-path:url(#SVGID_00000175289184632056817010000007242849700426500263_);fill:url(#SVGID_00000097475658879899417980000013345184675995067282_);" width="325.87" height="366.86"/>
</g>
<g>
	<defs>
		<path id="SVGID_00000055695257168747392290000005284057053209972109_" d="M380.09,337.13c-9.86,0.43-23.24,5.71-27.08,16.61
			c-3.96,11.2,3.75,23.81,11.21,34.2c27.57,38.44,74.43,78.35,100.86,99.66c-10.62-0.14-47.31-2.01-77.52-31.27
			c-14.98-14.51-22.92-30.48-27.08-41.04c-10.84,5.07-17.06,11.26-18.68,18.57c-5.89,26.57,49.21,67.94,165.31,124.09
			c0.85-2.37,2.65-8.38,0.93-15.63c-2.51-10.56-10.56-15.66-12.14-16.61c5.61,0.32,21.57,2.01,36.42,14.65
			c12.54,10.69,17.69,23.59,19.61,29.32c1.89-5.42,8.34-21.75,25.22-33.22c15.44-10.5,30.73-10.89,36.42-10.75
			c-2.04,1.38-7.23,5.28-10.27,12.7c-2.84,6.92-2.25,13.1-1.87,15.63c47.22-24.64,82.72-42.21,106.47-53.74
			c24.23-11.76,45.02-21.51,53.24-43.97c6.22-17,2.6-34.11-0.93-44.95c-7.61,13.11-26.12,40.87-60.71,59.6
			c-24.85,13.47-47.85,16.76-61.64,17.59c21.1-14.57,54.84-39.41,85.92-70.35c6.99-6.97,22.51-22.85,27.08-46.9
			c1.34-7.01,3.06-16.72-1.87-23.45c-7.23-9.9-26.73-10.49-48.56,0c1.98,1.5,13.77,10.74,14.95,26.39
			c1.18,15.77-8.92,31.57-25.22,38.1c2-6.43,1.12-12.65-1.87-14.65c-3.66-2.46-12.03,0.37-16.81,9.77
			c-10.11,11.8-25.05,26.48-45.76,39.09c-10.69,6.5-20.87,11.21-29.89,14.65c6.13-4.75,13.32-11.15,20.55-19.54
			c6.91-8.04,12.07-15.84,15.88-22.48c-5.86,5.78-35.9,34.2-82.19,33.22c-44.15-0.93-72.28-27.97-78.46-34.2
			c9.65,12.05,19.31,24.1,28.96,36.15c-9.89-4.81-21.48-11.43-33.62-20.52c-13.85-10.36-24.61-21.08-32.69-30.29
			c-1.43-7.04-8.22-10.62-13.08-8.79c-4.91,1.84-7.97,9.23-4.67,15.63c-23.63-13.32-32.88-33.27-28.02-43
			c4.92-9.84,24.14-8.91,26.15-8.79c-7.47-13.24-20.03-21.52-33.19-21.52C381,337.1,380.54,337.11,380.09,337.13"/>
	</defs>
	<clipPath id="SVGID_00000146479959231869205690000015535545374448891040_">
		<use xlink:href="#SVGID_00000055695257168747392290000005284057053209972109_"  style="overflow:visible;"/>
	</clipPath>
	
		<linearGradient id="SVGID_00000126318459457697108910000016543621532203363201_" gradientUnits="userSpaceOnUse" x1="-310.6402" y1="1393.7064" x2="-306.1506" y2="1393.7064" gradientTransform="matrix(94.2496 0 0 -94.2496 29619.0801 131809.6562)">
		<stop  offset="0" style="stop-color:#007BBB"/>
		<stop  offset="0.0699" style="stop-color:#0096C8"/>
		<stop  offset="0.1341" style="stop-color:#00AFD2"/>
		<stop  offset="0.7654" style="stop-color:#00AED2"/>
		<stop  offset="0.852" style="stop-color:#00ADD1"/>
		<stop  offset="0.8793" style="stop-color:#00ABD1"/>
		<stop  offset="0.9047" style="stop-color:#00A5CF"/>
		<stop  offset="0.9293" style="stop-color:#009CCB"/>
		<stop  offset="0.9534" style="stop-color:#008EC5"/>
		<stop  offset="0.9769" style="stop-color:#007CBB"/>
		<stop  offset="0.9944" style="stop-color:#006BB1"/>
		<stop  offset="1" style="stop-color:#006BB1"/>
	</linearGradient>
	
		<rect x="335.91" y="337.1" style="clip-path:url(#SVGID_00000146479959231869205690000015535545374448891040_);fill:url(#SVGID_00000126318459457697108910000016543621532203363201_);" width="431.44" height="232.58"/>
</g>
<g>
	<defs>
		<path id="SVGID_00000080206888216625411370000016498896675254690199_" d="M779.82,411.39c11.98,14.51,28.62,14.43,31.75,26.38
			c1.31,4.97,0.51,12.92-10.27,25.4c0.48-2.22,1.43-7.99-0.93-14.65c-2.36-6.65-6.65-10.36-8.41-11.73
			c-3.17,13.73-9.82,35.11-25.21,55.69c-29.54,39.49-65.35,41.41-110.2,74.26c-18.3,13.39-43.89,36.19-68.18,75.24
			c0.63-5.56,0.97-14.72-1.87-25.41c-2.47-9.3-6.41-16.2-9.34-20.52c-0.31,41.69-0.62,83.38-0.93,125.07
			c3.84-13.56,11.38-34.38,27.09-54.72c20.02-25.94,42.07-36.53,113-71.33c10.62-5.21,37.86-18.57,77.52-38.11
			c-4.95,0.94-11.69,1.68-19.61,0.98c-7.22-0.65-13.25-2.3-17.74-3.91c32.71-6.25,44.71-18.23,49.5-28.34
			c2.29-4.82,3.8-11.07,10.27-24.43c5.54-11.46,8.44-17.29,14.01-22.47c3.09-2.88,15-13.95,27.08-9.78
			c5.97,2.06,9.53,6.99,11.21,9.78c3.99-1.09,17.4-4.18,31.75,2.93c9.56,4.73,15.16,11.83,17.75,15.63
			c-0.93-9.11-1.87-18.23-2.8-27.35c-2.44-4.07-6.84-10.37-14.01-15.64c-17.22-12.64-30.56-4.71-42.97-15.64
			c-12.66-11.15-4.57-24.51-16.81-34.2c-6.35-5.02-12.67-4.7-20.22-4.38c-6.42,0.28-13.74,0.55-22.74-2.46
			c-14.17-4.73-23.88-14.72-29.89-22.47C768.68,385.86,770.57,400.19,779.82,411.39"/>
	</defs>
	<clipPath id="SVGID_00000090272497668904587370000001958761951317160876_">
		<use xlink:href="#SVGID_00000080206888216625411370000016498896675254690199_"  style="overflow:visible;"/>
	</clipPath>
	
		<linearGradient id="SVGID_00000111882396469704543330000003561286393668631984_" gradientUnits="userSpaceOnUse" x1="-307.6045" y1="1391.2839" x2="-303.0197" y2="1391.2839" gradientTransform="matrix(56.8018 -51.7749 -51.7749 -56.8018 90127.1016 63764.4648)">
		<stop  offset="0" style="stop-color:#007BBB"/>
		<stop  offset="0.0196" style="stop-color:#007BBB"/>
		<stop  offset="0.0676" style="stop-color:#0096C8"/>
		<stop  offset="0.1117" style="stop-color:#00AFD2"/>
		<stop  offset="0.6544" style="stop-color:#00AED2"/>
		<stop  offset="0.7288" style="stop-color:#00ADD1"/>
		<stop  offset="0.7739" style="stop-color:#00ABD1"/>
		<stop  offset="0.8158" style="stop-color:#00A5CF"/>
		<stop  offset="0.8563" style="stop-color:#009CCB"/>
		<stop  offset="0.896" style="stop-color:#008EC5"/>
		<stop  offset="0.9348" style="stop-color:#007CBB"/>
		<stop  offset="0.9637" style="stop-color:#006BB1"/>
		<stop  offset="1" style="stop-color:#006BB1"/>
	</linearGradient>
	
		<polygon style="clip-path:url(#SVGID_00000090272497668904587370000001958761951317160876_);fill:url(#SVGID_00000111882396469704543330000003561286393668631984_);" points="
		407.76,532.2 762.92,201.26 1086.49,564.16 731.33,895.1 	"/>
</g>
<g>
	<defs>
		<path id="SVGID_00000147913338882621760450000004046298633110691723_" d="M307.75,396.64c-9,3.01-16.32,2.74-22.74,2.46
			c-7.56-0.32-13.87-0.64-20.22,4.38c-12.25,9.69-4.15,23.05-16.81,34.2c-12.4,10.93-25.74,3-42.96,15.64
			c-7.17,5.26-11.57,11.57-14.01,15.63c-0.93,9.12-1.87,18.24-2.81,27.36c2.59-3.8,8.19-10.9,17.75-15.63
			c14.35-7.11,27.76-4.02,31.75-2.93c1.68-2.79,5.24-7.72,11.21-9.78c12.09-4.17,23.99,6.9,27.09,9.78
			c5.58,5.18,8.46,11.01,14.01,22.47c6.47,13.36,7.99,19.61,10.28,24.43c4.78,10.11,16.78,22.09,49.5,28.34
			c-4.5,1.61-10.52,3.26-17.75,3.91c-7.92,0.7-14.66-0.04-19.61-0.98c39.66,19.53,66.89,32.9,77.52,38.11
			c70.93,34.79,92.98,45.39,113.01,71.33c15.7,20.34,23.25,41.15,27.09,54.72c-0.31-41.69-0.62-83.37-0.94-125.07
			c-2.92,4.31-6.86,11.21-9.34,20.52c-2.84,10.69-2.49,19.85-1.87,25.41c-24.29-39.05-49.89-61.84-68.18-75.24
			c-44.86-32.86-80.67-34.77-110.2-74.26c-15.39-20.58-22.05-41.96-25.22-55.69c-1.75,1.36-6.05,5.08-8.4,11.73
			c-2.37,6.66-1.41,12.43-0.94,14.65c-10.78-12.49-11.57-20.44-10.27-25.4c3.14-11.95,19.77-11.87,31.75-26.38
			c9.25-11.2,11.13-25.53,11.21-36.15C331.63,381.92,321.92,391.9,307.75,396.64"/>
	</defs>
	<clipPath id="SVGID_00000142886282931285429170000016922402767972085658_">
		<use xlink:href="#SVGID_00000147913338882621760450000004046298633110691723_"  style="overflow:visible;"/>
	</clipPath>
	
		<linearGradient id="SVGID_00000137826523170275829620000016117368310672602785_" gradientUnits="userSpaceOnUse" x1="-307.9405" y1="1390.1174" x2="-303.3728" y2="1390.1174" gradientTransform="matrix(-58.9875 -40.1421 -40.1421 58.9875 38148.1992 -93710.8047)">
		<stop  offset="0" style="stop-color:#007BBB"/>
		<stop  offset="0.0196" style="stop-color:#007BBB"/>
		<stop  offset="0.0676" style="stop-color:#0096C8"/>
		<stop  offset="0.1117" style="stop-color:#00AFD2"/>
		<stop  offset="0.7076" style="stop-color:#00AED2"/>
		<stop  offset="0.7894" style="stop-color:#00ADD1"/>
		<stop  offset="0.8194" style="stop-color:#00A9D0"/>
		<stop  offset="0.866" style="stop-color:#009ECC"/>
		<stop  offset="0.9233" style="stop-color:#008BC3"/>
		<stop  offset="0.9885" style="stop-color:#0070B5"/>
		<stop  offset="1" style="stop-color:#006BB1"/>
	</linearGradient>
	
		<polygon style="clip-path:url(#SVGID_00000142886282931285429170000016922402767972085658_);fill:url(#SVGID_00000137826523170275829620000016117368310672602785_);" points="
		421.83,882.59 30.83,610.58 296.4,211.63 687.4,483.65 	"/>
</g>
<g>
	<defs>
		<path id="SVGID_00000088855583009994142500000017185009984511933629_" d="M623.53,866.72c-27.22,26.34-35.82,57.63-38.6,70.35
			c19.14-15.2,62.06-47.2,75.96-35.17c3.8,3.29,7.21,11.39,1.24,33.87c5.93-2.51,21.88-10.23,32.38-28.66
			c6.11-10.73,8.04-20.97,8.71-27.36c-12.49,4.62-26.14-0.56-32.37-11.73c-5.34-9.57-4.39-22.06,2.49-31.26
			C661.8,840.5,642.2,848.65,623.53,866.72"/>
	</defs>
	<clipPath id="SVGID_00000049218151609283866120000017694585461490815384_">
		<use xlink:href="#SVGID_00000088855583009994142500000017185009984511933629_"  style="overflow:visible;"/>
	</clipPath>
	
		<linearGradient id="SVGID_00000138531000942349220780000012244767859840796042_" gradientUnits="userSpaceOnUse" x1="-310.5352" y1="1397.4905" x2="-305.9488" y2="1397.4905" gradientTransform="matrix(-12.7543 12.0513 12.0513 12.7543 -20134.0996 -13217.5781)">
		<stop  offset="0" style="stop-color:#00A3C1"/>
		<stop  offset="1" style="stop-color:#0064A5"/>
	</linearGradient>
	
		<polygon style="clip-path:url(#SVGID_00000049218151609283866120000017694585461490815384_);fill:url(#SVGID_00000138531000942349220780000012244767859840796042_);" points="
		752.21,889.75 640.73,997.44 535.95,884.07 647.43,776.39 	"/>
</g>
<g>
	<defs>
		<path id="SVGID_00000080188062239059761690000000732226446910769585_" d="M437.92,869.04c-6.23,11.16-19.89,16.33-32.38,11.72
			c0.68,6.38,2.61,16.63,8.72,27.36c10.51,18.44,26.45,26.16,32.37,28.66c-5.95-22.48-2.55-30.59,1.25-33.87
			c13.9-12.02,56.82,19.97,75.96,35.17c-2.79-12.72-11.39-44.01-38.61-70.35c-18.67-18.06-38.26-26.22-49.81-29.97
			C442.31,846.98,443.27,859.46,437.92,869.04"/>
	</defs>
	<clipPath id="SVGID_00000002342364081866637110000010890600800217534126_">
		<use xlink:href="#SVGID_00000080188062239059761690000000732226446910769585_"  style="overflow:visible;"/>
	</clipPath>
	
		<linearGradient id="SVGID_00000159467392432750217360000001773745183576918165_" gradientUnits="userSpaceOnUse" x1="-311.4409" y1="1387.2562" x2="-306.9035" y2="1387.2562" gradientTransform="matrix(24.4062 10.1942 10.1942 -24.4062 -6127.1865 37899.1953)">
		<stop  offset="0" style="stop-color:#00A4C3"/>
		<stop  offset="0.1122" style="stop-color:#00A1C2"/>
		<stop  offset="0.2914" style="stop-color:#0097BE"/>
		<stop  offset="0.5152" style="stop-color:#0087B7"/>
		<stop  offset="0.7726" style="stop-color:#006EAA"/>
		<stop  offset="0.8597" style="stop-color:#0064A5"/>
		<stop  offset="1" style="stop-color:#0064A5"/>
	</linearGradient>
	
		<polygon style="clip-path:url(#SVGID_00000002342364081866637110000010890600800217534126_);fill:url(#SVGID_00000159467392432750217360000001773745183576918165_);" points="
		423.12,794.75 558.75,852.67 506.27,981.09 370.64,923.18 	"/>
</g>
<path class="st1" d="M489.67,296.05l-0.62,68.4c6.41,7.14,15.64,16.97,27.4,28.01c25.99,24.39,33.03,25.27,36.11,25.4
	c12.42,0.53,22.03-8.48,37.98-23.45c11.85-11.12,20.15-22.03,25.53-29.96c0.21-23.67,0.41-47.34,0.62-71.01
	c-3.26,6.43-5.14,11.93-6.23,15.64c-5.95,20.2-1.89,32.37-10.58,45.6c-2.47,3.76-5.14,6.33-6.85,7.82
	c-0.21-4.99-0.41-9.99-0.62-14.99c-5.61,18.06-21.86,30.25-39.85,29.97c-17.55-0.28-33.14-12.36-38.6-29.97v16.29
	c-5.72-2.64-8.83-5.99-10.59-8.47c-8.63-12.12-1.21-26.04-8.09-46.9C493.45,302.9,491.21,298.67,489.67,296.05"/>
<path class="st2" d="M814.68,594.39c-3.06-1.35-7.82-3.03-13.7-3.26c-14.36-0.56-22.2,8.03-37.36,16.94
	c-26.74,15.72-35.76,8.66-47.94,22.14c-8.95,9.91-12.01,22.51-13.08,32.57c6.28-4.26,15.88-9.41,28.02-10.42
	c20-1.67,31.17,9.22,41.72,3.25c4.86-2.75,10.39-9.54,11.83-28.01c8.32,8.14,23.61,20.99,46.07,29.31
	c24.74,9.17,46.27,8.44,57.91,7.17c3.63,3.58,9.38,8.33,17.43,11.72c15.04,6.34,28.63,3.95,34.24,2.61
	c-1.24-1.97-3.95-5.69-8.71-8.47c-4.34-2.53-8.37-3.11-10.59-3.26c3.27-1.41,9.91-4.87,14.32-12.37
	c6.27-10.67,5.45-25.09-1.87-37.13c-0.79,3.76-3.95,16.54-15.57,26.06c-14.14,11.58-30.09,9.55-33,9.12
	c1.67-3.02,4.27-8.67,4.98-16.28c0.7-7.59-0.8-13.64-1.87-16.94c-1.05,4.42-4.22,15.04-13.7,23.45c-4.77,4.23-9.59,6.53-13.07,7.82
	c-1.69-7.22-4.45-17.92-8.72-30.62c-4.59-13.65-8.59-22.65-9.96-26.06c-5.34-13.25-8.48-35.17,1.87-72.96
	c1.85,7.29,3.57,17.35,3.11,29.31c-0.27,7.26-1.29,13.63-2.49,18.89c7.05-0.87,14.11-1.74,21.17-2.61
	c-2.26,1.67-9.19,7.23-11.21,16.94c-2.41,11.63,3.24,24.44,14.32,31.92c3.87-7.77,8.31-18.54,11.21-31.92
	c2.71-12.51,3.27-23.51,3.11-31.92c-3.25-2.25-13.47-9.97-18.06-24.76c-3.76-12.13-1.7-22.5-0.62-26.71
	c-0.79-2.88-3.28-10.46-9.34-13.03c-8.53-3.61-22.35,3.52-29.26,20.19v71C822.15,583.54,818.42,588.96,814.68,594.39"/>
<path class="st2" d="M877.52,536.79c1.39-5.07,4.66-6.43,7.66-10.69c2.52-3.57,5.01-9.44,4.47-19.37
	c5.24,2.12,14.29,6.65,22.35,16.04c4.77,5.55,7.73,11.1,9.58,15.36c2.82,10.84,5.52,25.42,5.75,42.75
	c0.21,15.69-1.66,29.1-3.83,39.42c-1.63,4.63-4.19,10.52-8.3,16.7c-5.24,7.89-11.01,13.28-15.32,16.71
	c-1.22-7.28-2.19-15.57-2.56-24.72c-0.47-11.85,0.19-22.44,1.28-31.4c1.79-0.23,6.17-1.04,10.21-4.68c2.95-2.65,4.42-5.64,5.11-7.35
	c-2.21,0.56-5.55,1.11-9.58,0.67c-3.2-0.35-5.8-1.21-7.66-2.01c1.75-5.62,3.73-14.58,2.55-25.39c-0.5-4.64-1.48-8.68-2.55-12.03
	c-6.12,5.37-13.65,5.62-17.24,2.01C875.43,544.79,877.43,537.11,877.52,536.79"/>
<path class="st2" d="M292.48,595.87c3.06-1.35,7.82-3.03,13.7-3.26c14.36-0.56,22.2,8.03,37.36,16.94
	c26.74,15.72,35.76,8.66,47.94,22.14c8.95,9.91,12.01,22.51,13.08,32.57c-6.28-4.26-15.88-9.41-28.02-10.42
	c-20-1.67-31.18,9.22-41.72,3.25c-4.86-2.75-10.39-9.54-11.83-28.01c-8.32,8.14-23.61,20.99-46.07,29.31
	c-24.74,9.17-46.27,8.44-57.91,7.17c-3.63,3.58-9.38,8.33-17.43,11.72c-15.04,6.34-28.63,3.95-34.24,2.61
	c1.24-1.97,3.95-5.69,8.71-8.47c4.34-2.53,8.37-3.11,10.59-3.26c-3.27-1.41-9.91-4.87-14.32-12.37
	c-6.27-10.67-5.45-25.09,1.87-37.13c0.79,3.76,3.95,16.54,15.57,26.06c14.14,11.58,30.09,9.55,33,9.12
	c-1.67-3.02-4.27-8.67-4.98-16.29c-0.7-7.59,0.8-13.63,1.87-16.94c1.05,4.42,4.22,15.04,13.7,23.45c4.76,4.23,9.59,6.53,13.07,7.82
	c1.69-7.22,4.45-17.92,8.72-30.62c4.59-13.65,8.59-22.65,9.96-26.06c5.34-13.25,8.48-35.17-1.87-72.96
	c-1.85,7.29-3.57,17.35-3.11,29.31c0.27,7.26,1.29,13.63,2.49,18.89c-7.06-0.87-14.11-1.74-21.17-2.61
	c2.26,1.66,9.19,7.23,11.21,16.94c2.41,11.63-3.24,24.44-14.32,31.92c-3.88-7.77-8.31-18.54-11.21-31.92
	c-2.71-12.51-3.27-23.51-3.11-31.92c3.25-2.25,13.47-9.97,18.06-24.76c3.76-12.13,1.7-22.5,0.62-26.71
	c0.79-2.88,3.28-10.46,9.34-13.03c8.53-3.61,22.35,3.52,29.26,20.19v71C285.01,585.02,288.75,590.44,292.48,595.87"/>
<path class="st2" d="M640.34,219.84c-4.34,12.96-14.65,22.33-26.77,24.1c-12.19,1.79-21.42-4.81-23.66-6.51
	c0.41,2.82,0.83,5.65,1.24,8.47c-8-1.56-12.08-4.97-14.32-7.82c-3.51-4.46-3.36-8.58-7.48-18.24c-2.07-4.86-4.16-8.65-5.6-11.07
	c10.67,5.82,17.14,5.17,21.17,3.26c8.37-3.98,8.4-14.5,18.05-20.19c6-3.54,12.59-3.38,17.43-2.61c0.32-3.54,0.48-10.71-3.11-18.24
	c-3.61-7.56-11.97-17.46-21.17-16.94c-8.14,0.47-9.93,8.69-21.79,15.63c-8.68,5.08-17.29,6.27-23.04,6.52
	c-5.53-0.47-13.93-2.04-21.79-7.82c-9.59-7.05-11.06-14.96-18.06-15.64c-9.2-0.89-16.74,11.83-17.43,13.03
	c-5.12,8.86-4.17,17.89-3.74,20.85c3.67,1.34,8.89,3.68,14.32,7.82c11.99,9.14,13.94,18.68,21.79,20.19
	c3.62,0.69,9.08-0.22,16.81-7.82c-1.67,2.57-4.13,6.79-6.23,12.38c-3.45,9.22-2.63,13.46-5.6,18.24c-2.24,3.59-6.93,7.98-18.06,9.77
	c0.41-3.26,0.83-6.51,1.24-9.77c-2.36,1.27-14.57,7.52-29.26,2.61c-13.18-4.41-19.61-14.88-21.17-17.59
	c-3.59,3.68-9.15,10.67-9.96,20.19c-1.4,16.34,11.67,34.03,33,41.04c-2.37-7.18,0.17-14.39,4.98-16.94
	c6.1-3.22,12.93,2.58,13.7,3.26c6.42,5.61,5.67,14.34,5.6,14.98c-0.76,7.49-5.95,11.68-6.85,12.38c-0.69,3.9-1.55,11.74,1.24,20.84
	c2.2,7.17,5.75,12.17,8.09,14.98v-20.85c4.32,4.08,15.96,13.98,33.62,16.28c24.65,3.23,42.48-10.74,46.07-13.68
	c0.42,6.3,0.83,12.59,1.24,18.89c2.17-3.42,5.37-9.41,6.85-17.59c1.67-9.18,0.38-16.73-0.62-20.85c-5.01-5.93-6.79-13.7-4.36-20.19
	c1.73-4.61,6.43-10.85,12.45-10.42c5.53,0.39,8.76,6.14,9.34,7.16c3.46,6.15,1.59,12.57,1.25,13.68
	c1.05-0.27,21.58-5.87,28.01-27.36C654.06,237.39,641.2,220.9,640.34,219.84 M576.43,297.8c-3.61,4.51-13.33,4.48-22.82-1.59
	c-7.84,5.66-16.45,6.38-20.54,2.39c-4.35-4.24-2.52-12.78-1.52-17.5c0.68-3.2,2-7.33,8.36-17.51c3.01-4.81,7.27-11.16,12.93-18.3
	c7.71,9.76,13.49,17.93,17.5,23.88c1.5,2.23,3.67,5.5,5.32,10.34C577,283.4,580.27,293.02,576.43,297.8"/>
<path class="st1" d="M641.47,221.8c1,1.22,12.59,15.83,6.83,35.98c-3.93,13.72-12.17,23.49-25.85,26.89
	c3.57-1.79,13.24-7.74,19.68-22.93C650.65,241.64,642.76,224.39,641.47,221.8"/>
<path class="st1" d="M464.27,222.55c-0.91,1.29-15.88,12.6-8.78,32.27c4.84,13.4,17.5,27.85,31.97,29.04
	c-3.68-1.52-13.73-6.75-21.17-21.43C456.44,243.01,463.16,225.23,464.27,222.55"/>
<path class="st1" d="M504.93,297.01c-0.71,2.19-1.52,5.5-1.52,9.55c0,5.35,1.43,9.25,3.04,13.53c1.39,3.7,3.04,7.96,7.61,13.53
	c-2.88-6.47-5.82-13.97-7.61-23.88C505.63,305.18,505.17,300.91,504.93,297.01"/>
<path class="st1" d="M600.57,295.89c0.93,2.1,2.08,5.29,2.51,9.32c0.55,5.32-0.47,9.36-1.62,13.79c-1,3.84-3.72,10.63-6.76,15.4
	c2.2-6.76,4.94-15.64,5.69-25.68C600.72,304.1,600.74,299.8,600.57,295.89"/>
<path class="st2" d="M493.27,303.18l1.02,60.67c3.63,3.32,27.67,25.19,45.64,35.81c3.79,2.24,9.14,5.06,15.97,4.78
	c5.89-0.25,10.39-2.71,13.69-4.78c16.52-10.34,36.36-31.54,40.32-35.81l2.28-61.28c-0.8,2.09-1.98,5.39-3.04,9.55
	c-1.78,6.94-1.62,9.9-3.04,19.9c-1.45,10.2-2.23,15.39-4.57,19.9c-2.56,4.93-5.89,8.28-8.36,10.35c-0.26-5.04-0.51-10.08-0.76-15.12
	c-5.32,17.11-19.89,29.13-36.51,30.24c-18.42,1.23-35.82-11.17-41.83-30.24v16.71c-2.43-1.04-6.68-3.3-9.89-7.96
	c-0.77-1.11-1.89-2.97-3.04-6.37c-2.13-6.32-1.53-9.64-2.28-20.69c-0.74-10.88-1.83-15.07-2.28-16.72
	C495.49,308.27,494.21,305.22,493.27,303.18"/>
<path class="st1" d="M593.93,202.3c-0.6,1.66-2.42,5.97-6.85,8.75c-3.19,2.01-6.24,2.29-7.61,2.39c-3.61,0.28-6.33-0.65-9.13-1.59
	c-2.99-1.01-5.31-2.26-6.85-3.19c4.51,0.6,11.62,0.9,19.78-1.59C587.61,205.76,591.18,203.97,593.93,202.3"/>
<path class="st1" d="M516.34,206.28c0.6,1.01,5.56,8.67,11.41,8.75c1.92,0.03,4.14-0.66,4.57-0.79c2.73-0.85,4.62-2.15,6.08-3.19
	c1.25-0.88,2.87-2.17,4.57-3.98c-3.09,1.21-8.3,2.76-14.82,2.41C523.52,209.24,518.98,207.32,516.34,206.28"/>
<path class="st1" d="M533.08,233.34c5.44-1.68,13.3-3.41,22.82-3.19c7.36,0.18,13.57,1.48,18.27,2.86c-0.57-2.35-1.32-4.92-2.3-7.63
	c-1.19-3.32-2.51-6.24-3.8-8.75c-1.65-1.35-7.88-6.09-16.74-5.57c-6.44,0.38-11,3.34-12.93,4.77c-1.48,2.44-2.43,4.66-3.04,6.37
	c-0.88,2.44-1.28,4.41-1.52,5.57C533.4,229.93,533.18,231.83,533.08,233.34"/>
<path class="st1" d="M784.86,612.95c-0.25,5.04-0.51,10.08-0.76,15.12c5.9,5.76,13.7,12.32,23.58,18.3
	c16,9.69,31.04,14.01,41.68,16.08c-2.97-0.78-20.37-5.63-30.27-24.04c-10.65-19.82-4.03-39.42-3.04-42.18
	c-5.3,14.61-15.44,22.97-23.58,21.48C790.82,617.43,787.95,616.49,784.86,612.95"/>
<path class="st1" d="M702.71,663.09c6.26-9.05,12.01-13.25,16.86-15.41c3.26-1.45,6.5-2.06,6.72-2.1c4.53-0.85,8.19-0.46,11.41,0
	c12.05,1.74,13.57,3.91,19.02,3.98c4,0.06,9.72-1.02,16.73-6.37c-0.26,1.39-1.3,5.94-5.32,9.55c-3.69,3.31-7.72,3.86-9.13,3.98
	c-5.32-0.8-19.02-7.16-35.75-3.19C713.56,655.84,706.57,660.19,702.71,663.09"/>
<path class="st1" d="M405.16,664.97c-6.26-9.05-12.01-13.25-16.86-15.41c-3.26-1.45-6.5-2.06-6.72-2.1c-4.53-0.85-8.19-0.46-11.41,0
	c-12.05,1.74-13.57,3.91-19.02,3.98c-4,0.06-9.72-1.02-16.73-6.37c0.26,1.39,1.3,5.94,5.32,9.55c3.69,3.31,7.72,3.86,9.13,3.98
	c5.32-0.8,19.02-7.16,35.75-3.19C394.31,657.72,401.3,662.07,405.16,664.97"/>
<path class="st1" d="M499.99,160.94c2.47-2.91,6.05-6.09,10.1-5.77c5.04,0.39,7.49,5.96,11.65,10.73
	c10.68,12.25,27.31,13.12,29.51,13.2c10.54,0.39,25.05-3.97,34.95-14.03c3.5-3.56,6.5-7.9,11.65-8.25c5.03-0.34,9.41,3.3,12.42,6.6
	c-3.27-2.18-8.18-4.64-13.2-3.3c-4.2,1.12-6.67,4.42-7.77,5.78c-7.76,9.53-24.75,17.18-38.06,16.5c-9.65-0.49-25.34-5.77-32.62-16.5
	c-1.31-1.93-3.9-6.33-8.54-7.43C506.24,157.55,502.56,159.27,499.99,160.94"/>
</svg>
