<?xml version="1.0" encoding="utf-8"?>
<!-- Generator: Adobe Illustrator 24.0.2, SVG Export Plug-In . SVG Version: 6.00 Build 0)  -->
<svg version="1.1" id="Capa_1" xmlns="http://www.w3.org/2000/svg" xmlns:xlink="http://www.w3.org/1999/xlink" x="0px" y="0px"
	 viewBox="0 0 1080 1080" style="enable-background:new 0 0 1080 1080;" xml:space="preserve">
<style type="text/css">
	.st0{fill:#1D71B8;}
	.st1{fill:#FFFFFF;}
</style>
<g>
	<path class="st0" d="M286.5,325.61c86.34-25.42,156.7-28.94,202.92-30.95c34.98-1.53,81.97-1.74,137.57,3.44
		c12.26-5.58,30.86-15.9,48.15-34.39c5.83-6.24,43.26-46.28,34.39-65.35c-24.31-52.29-387.18,73.64-443.67,96.3
		c-32.88,13.19-68.78,30.95-68.79,30.95c-13.72,5.99-28.92,13.8-44.71,24.07c-32.99,21.46-56.43,45.78-72.22,65.35
		c23-12.04,54.57-27.82,92.86-44.71C211.19,353.48,245.32,337.74,286.5,325.61z"/>
	<path class="st0" d="M867.74,291.22c23.54-4.11,40.23-12.93,48.15-17.2c48.29-26.01,70.5-68.59,75.66-79.1
		c22.15-45.06,19.26-86.61,17.2-103.18c-6.34,8.88-15.5,20.95-27.51,34.39c-19.49,21.8-50.22,56.18-96.3,79.1
		c-46.98,23.37-70.21,15.1-99.74,44.71c-12.47,12.5-19.84,25.53-24.07,34.39c11.62,2.32,28.13,5.13,48.15,6.88
		C832.79,293.28,848.24,294.63,867.74,291.22z"/>
	<path class="st0" d="M808.52,734.14c-86.34,25.42-156.7,28.94-202.92,30.95c-34.98,1.53-81.97,1.74-137.57-3.44
		c-12.26,5.58-30.86,15.9-48.15,34.39c-5.83,6.24-43.26,46.28-34.39,65.35c24.31,52.29,387.18-73.64,443.67-96.3
		c32.88-13.19,68.79-30.95,68.79-30.95c13.72-5.99,28.92-13.8,44.71-24.07c32.99-21.46,56.43-45.78,72.22-65.35
		c-23,12.04-54.57,27.82-92.86,44.71C883.84,706.27,849.7,722.01,808.52,734.14z"/>
	<path class="st0" d="M227.29,768.53c-23.54,4.11-40.23,12.93-48.15,17.2c-48.29,26.01-70.5,68.59-75.66,79.1
		c-22.15,45.06-19.26,86.61-17.2,103.18c6.34-8.88,15.5-20.95,27.51-34.39c19.49-21.8,50.22-56.18,96.3-79.1
		c46.98-23.37,70.21-15.1,99.74-44.71c12.47-12.5,19.84-25.53,24.07-34.39c-11.62-2.32-28.13-5.13-48.15-6.88
		C262.24,766.47,246.79,765.12,227.29,768.53z"/>
</g>
<g>
	<path class="st1" d="M885.7,271.36c43.26-14.66,68.03-45.3,75.27-54.49c34.77-44.16,36.84-92.26,36.84-108.23
		c-18.94,13.45-44.95,28.86-77.96,40.57c-59.03,20.94-111.3,19.7-142.1,16.45c7.46-7.4,17.8-19.39,26.08-36.48
		c9.27-19.14,12.02-36.53,12.9-47.52c-12,11.19-30.89,25.9-56.99,34.81c-34.02,11.62-63.39,7.64-76.11,6.23
		c-69.93-7.75-136.41,6.9-197.42,20.35c-81.56,17.98-140.05,51.15-172.54,69.91C251.75,248.69,210.11,286,177.23,315.8
		c-34.17,30.96-60.88,59.61-80.19,81.78c21.35-14.28,48.73-30.95,81.77-47.25c52.37-25.84,97.85-40.36,126.6-48.28
		c94.87-26.13,172.94-25.93,232.13-25.37c38.18,0.37,70.05,2.76,92.73,5c11.94-7.24,27.74-18.56,43.25-35.55
		c14.37-15.75,23.81-31.25,29.88-43.16c1.15,6.95,2.29,19.54-1.85,34.34c-3.62,12.94-9.84,22.47-14.81,28.61
		c-1.78,1.48-3.16,3.1-4.21,4.8c-6.5,10.57,2.22,19.82-2.22,41.21c-1.81,8.7-7.31,26.74-44.55,59.59
		c-23.11,20.39-42.91,32.78-68.03,47.99c-73.06,44.24-73.3,40.96-96.06,56.82c-13.47,9.39-25.43,18.94-35.94,28.11H289.94
		c-22.94,18.33-45.85,36.7-68.79,55.03h162.11c-17.28,22.11-47.9,62.98-60.27,118.94c-4.63,20.92-5.54,38.85-6.58,58.2
		c-1.5,27.83-2.12,42.25,3.64,51.18c-11.06-0.47-21.24-0.84-30.45-1.12c-51.72-1.58-66.8-0.45-85.07,5.74
		c-43.26,14.66-68.03,45.3-75.27,54.49c-34.77,44.16-36.84,92.26-36.84,108.23c18.94-13.45,44.95-28.86,77.96-40.57
		c59.03-20.94,111.3-19.7,142.1-16.45c-7.46,7.4-17.8,19.39-26.08,36.48c-9.27,19.14-12.02,36.53-12.9,47.52
		c12-11.19,30.89-25.9,56.99-34.81c34.02-11.62,63.39-7.64,76.11-6.23c69.93,7.75,136.41-6.9,197.42-20.35
		c81.56-17.98,140.05-51.15,172.54-69.91c61.91-35.74,103.55-73.06,136.43-102.86c34.17-30.96,60.88-59.61,80.19-81.78
		c-21.35,14.28-48.73,30.95-81.77,47.25c-52.37,25.84-97.85,40.36-126.6,48.28c-94.87,26.13-172.94,25.93-232.13,25.37
		c-38.18-0.37-70.05-2.76-92.73-5c-11.94,7.24-27.74,18.56-43.25,35.55c-14.37,15.75-23.81,31.25-29.88,43.16
		c-1.15-6.95-2.29-19.54,1.85-34.34c4.76-17.02,14.03-28.17,19.02-33.42c-0.42-0.03-0.82-0.06-1.24-0.09
		c6.27-8.48,3.16-16.12,2.47-47.9c-0.34-15.5-0.99-45.51,3.89-72.12c7.09-38.64,25-65.54,35.35-80.76
		c8.65-12.72,17.69-23.34,27.06-32.7h3.85h182.28c22.94-18.33,45.85-36.7,68.79-55.03H547.56c20.27-12.07,32.87-15.15,87-46.88
		c50.96-29.87,74.6-47.53,96.8-70.55c24.02-24.91,32.69-41.92,37.31-53.1c9.18-22.24,11.13-42.79,11.02-57.56
		c7.43,0.29,14.44,0.53,20.95,0.73C852.36,278.68,867.43,277.55,885.7,271.36z"/>
</g>
</svg>
